<svg width="60" height="60" viewBox="0 0 60 60" fill="none" xmlns="http://www.w3.org/2000/svg">
<path d="M38.1894 20.8093C40.2955 22.9154 43.7471 22.9154 45.8532 20.8093L54.2776 12.3849C48.8252 4.88493 39.9854 0 29.9991 0C26.3077 0 22.7741 0.672778 19.5039 1.88963C19.7262 2.25819 19.9895 2.6092 20.3054 2.92512L38.1894 20.8093Z" fill="#4D3EFC"/>
<path d="M22.0135 39.0678C19.9075 36.9618 16.4559 36.9618 14.3498 39.0678L5.75586 47.6618C11.2141 55.1382 20.0361 60 29.999 60C33.7782 60 37.3878 59.292 40.7165 58.0226C40.4884 57.6422 40.2193 57.2795 39.8975 56.952L22.0135 39.0678Z" fill="#4D3EFC"/>
<path d="M60 29.9999C60 26.2674 59.3098 22.6929 58.0636 19.3934C57.7245 19.604 57.4085 19.8497 57.1161 20.1422L39.2319 38.0264C37.1258 40.1325 37.1258 43.5842 39.2319 45.6902L47.7321 54.1906C55.1676 48.7324 60 39.9336 60 29.9999Z" fill="#4D3EFC"/>
<path d="M20.9729 21.8506C23.079 19.7445 23.079 16.2928 20.9729 14.1867L12.455 5.66882C4.91413 11.1212 0 19.9843 0 29.9999C0 33.7324 0.690323 37.3069 1.93641 40.6064C2.35177 40.3724 2.74374 40.0858 3.09475 39.7347L20.9729 21.8506Z" fill="#4D3EFC"/>
</svg>
